HIERARCHY
ROOT Hips
{
  OFFSET -331.093 83.8371 -317.828
  CHANNELS 6 Xposition Yposition Zposition Zrotation Xrotation Yrotation
  JOINT LeftUpLeg
  {
    OFFSET 8.64259 1.95398 -2.38835
    CHANNELS 3 Zrotation Xrotation Yrotation
    JOINT LeftLeg
    {
      OFFSET 43.7702 0 0
      CHANNELS 3 Zrotation Xrotation Yrotation
      JOINT LeftFoot
      {
        OFFSET 40.6238 0 0
        CHANNELS 3 Zrotation Xrotation Yrotation
        JOINT LeftToeBase
        {
          OFFSET 12.7242 0 0
          CHANNELS 3 Zrotation Xrotation Yrotation
          End Site
          {
            OFFSET 0 0 0
          }
        }
      }
    }
  }
  JOINT RightUpLeg
  {
    OFFSET -8.2249 1.95398 -2.59336
    CHANNELS 3 Zrotation Xrotation Yrotation
    JOINT RightLeg
    {
      OFFSET 43.5653 0 0
      CHANNELS 3 Zrotation Xrotation Yrotation
      JOINT RightFoot
      {
        OFFSET 40.6238 0 0
        CHANNELS 3 Zrotation Xrotation Yrotation
        JOINT RightToeBase
        {
          OFFSET 12.7242 0 0
          CHANNELS 3 Zrotation Xrotation Yrotation
          End Site
          {
            OFFSET 0 0 0
          }
        }
      }
    }
  }
  JOINT Spine
  {
    OFFSET 0.165834 0.87714 6.61349
    CHANNELS 3 Zrotation Xrotation Yrotation
    JOINT Spine1
    {
      OFFSET 7.38963 1.71661e-005 0
      CHANNELS 3 Zrotation Xrotation Yrotation
      JOINT Spine2
      {
        OFFSET 11.9445 1.14441e-005 0
        CHANNELS 3 Zrotation Xrotation Yrotation
        JOINT Spine3
        {
          OFFSET 14.7254 4.19617e-005 0
          CHANNELS 3 Zrotation Xrotation Yrotation
          JOINT Spine4
          {
            OFFSET 10.9679 0 0
            CHANNELS 3 Zrotation Xrotation Yrotation
            JOINT RightShoulder
            {
              OFFSET 2.46616 -1.6653 3.69651
              CHANNELS 3 Zrotation Xrotation Yrotation
              JOINT RightArm
              {
                OFFSET 13.0012 0 0
                CHANNELS 3 Zrotation Xrotation Yrotation
                JOINT RightForeArm
                {
                  OFFSET 28.7848 1.62311e-005 0
                  CHANNELS 3 Zrotation Xrotation Yrotation
                  JOINT RightHand
                  {
                    OFFSET 26.5688 1.62095e-005 0
                    CHANNELS 3 Zrotation Xrotation Yrotation
                    End Site
                    {
                      OFFSET 0 0 0
                    }
                  }
                }
              }
            }
            JOINT LeftShoulder
            {
              OFFSET 2.38034 -1.29275 -3.7523
              CHANNELS 3 Zrotation Xrotation Yrotation
              JOINT LeftArm
              {
                OFFSET 16.3182 6.07031e-005 0
                CHANNELS 3 Zrotation Xrotation Yrotation
                JOINT LeftForeArm
                {
                  OFFSET 27.0901 0 0
                  CHANNELS 3 Zrotation Xrotation Yrotation
                  JOINT LeftHand
                  {
                    OFFSET 24.5451 1.51738e-005 0
                    CHANNELS 3 Zrotation Xrotation Yrotation
                    End Site
                    {
                      OFFSET 0 0 0
                    }
                  }
                }
              }
            }
            JOINT Neck
            {
              OFFSET 5.0226 -0.0266342 0
              CHANNELS 3 Zrotation Xrotation Yrotation
              JOINT Head
              {
                OFFSET 6.69364 2.86102e-005 0
                CHANNELS 3 Zrotation Xrotation Yrotation
                End Site
                {
                  OFFSET 0 0 0
                }
              }
            }
          }
        }
      }
    }
  }
}
MOTION
Frames:	15
Frame Time:	0.0416667
71.2164 76.3119 -4.22253 -86.0544 -3.34726 -90.8215 177.462 53.9736 114.83 -70.1021 26.5818 2.14139 57.6033 0.657276 9.55278 61.705 26.7842 0.731494 177.79 46.3917 91.1253 -100.443 6.93534 -3.14584 75.3814 -9.80383 -5.96115 51.7424 -3.76013 -10.1369 -0.0796195 9.13124 -88.6882 8.59926 0.422018 2.56804 -3.0741 0.534584 2.54699 -25.5891 -0.369031 2.57618 -5.57643 -0.369031 2.57617 90.1171 -41.0031 -102.535 29.443 -15.6692 1.97064 -16.026 -13.9965 -51.9844 -14.4141 -0.848085 1.17787 -93.1076 -41.0045 71.9682 -8.50192 -19.184 -8.85595 14.3886 4.15879 -73.9946 26.652 2.93684 7.2269 -14.1474 -31.5294 -15.1521 0.169343 -31.5893 -30.6155 
70.3882 76.4514 -5.49178 -84.9865 -0.720948 -90.8001 178.31 53.2176 116.433 -68.8757 26.7988 1.91466 57.0584 0.741073 10.658 62.4208 28.3872 2.09302 174.188 50.452 93.2159 -101.139 8.04332 -2.6437 75.0133 -9.7367 -6.00105 49.915 -4.2021 -12.2138 -0.263467 9.11379 -88.7457 8.6394 0.030101 2.47945 -3.0339 0.139152 2.47571 -25.5512 -0.716274 2.37398 -5.53855 -0.716272 2.37397 89.8057 -41.5376 -102.908 30.2416 -19.3282 6.10143 -17.5366 -16.6168 -52.6756 -13.0528 -0.741627 0.738064 -92.1129 -39.9394 73.2632 -9.03442 -15.6058 -9.82828 15.2354 3.41575 -76.1342 29.1106 3.37409 7.89116 -13.7092 -30.6545 -14.8555 1.71881 -30.9734 -29.4002 
69.2291 76.9574 -7.0129 -83.9387 1.96904 -91.2672 -179.905 51.0594 116.915 -66.5968 24.8509 1.67124 58.2088 1.34974 9.86199 60.919 28.2458 3.80836 171.583 54.0912 93.5237 -100.653 9.72245 -2.32543 75.7508 -10.1955 -6.08873 49.2239 -3.25495 -9.43767 -0.378499 9.05638 -88.8042 8.75736 -0.223513 2.38109 -2.91575 -0.118527 2.3886 -25.4355 -0.928623 2.20399 -5.42288 -0.928635 2.20398 90.0747 -42.3699 -102.223 32.0984 -21.2326 11.6378 -19.7497 -17.1312 -54.7954 -9.74118 -0.563051 0.0596965 -92.3079 -39.7913 72.8944 -7.82573 -12.0889 -7.87674 18.2292 2.46666 -79.9621 25.93 2.77131 6.94556 -12.2076 -30.2504 -14.6837 2.7263 -30.5226 -27.5948 
67.4868 78.0637 -9.00785 -83.6215 6.00643 -92.7566 -175.865 46.3859 116.147 -61.897 24.5218 0.689106 56.9342 0.518831 10.097 62.1611 29.9228 4.52522 170.805 56.9935 91.5309 -99.5208 6.94296 -1.99662 72.8801 -8.52108 -5.50282 52.1417 -4.59888 -12.5117 -0.493676 8.98917 -88.9204 8.8953 -0.504256 2.17107 -2.77741 -0.408227 2.19115 -25.3014 -1.13334 1.9193 -5.28873 -1.1333 1.91931 90.3259 -41.6744 -101.993 34.5568 -23.6344 17.6893 -19.4671 -15.6468 -57.1934 -13.0387 -0.636714 -0.486833 -92.5187 -40.378 72.7312 -8.17867 -7.46311 -3.5507 18.0871 0.850044 -82.1832 25.4045 2.82941 7.40339 -9.83918 -30.164 -12.7102 3.55523 -30.3135 -25.9188 
65.0344 79.8994 -11.6995 -83.5259 11.3767 -95.2526 -170.33 38.23 114.728 -53.6675 23.2455 -1.13688 56.1881 -0.238721 9.34681 61.3063 30.1303 5.90368 169.488 58.5373 89.6055 -96.7904 6.01145 -1.52819 71.251 -7.23573 -4.90892 54.6034 -4.98976 -12.6534 -0.548169 8.82464 -88.994 9.22604 -0.642547 2.03947 -2.44638 -0.552186 2.06575 -24.9728 -1.22569 1.75222 -4.96011 -1.22568 1.75222 90.6684 -40.9924 -101.601 37.2258 -25.3162 23.6768 -20.2617 -15.0052 -59.9972 -14.5574 -0.6723 -0.615897 -92.4585 -41.3526 73.1316 -10.0757 -1.81883 2.10034 22.9557 0.980748 -82.1963 24.6071 3.00838 8.49316 -8.18188 -29.2546 -10.1429 4.26318 -29.4398 -24.0542 
62.0063 82.4538 -15.1245 -82.8193 17.4393 -98.5788 -165.631 26.2704 113.092 -40.6412 17.6484 -2.77646 57.4536 -1.33152 3.01676 53.0109 26.3477 12.1913 166.55 58.9981 88.8083 -92.8175 5.22918 -0.669657 73.2871 -7.36588 -4.66445 50.3995 -5.11891 -14.8257 -0.52243 8.5145 -89.0503 9.84622 -0.610596 1.93323 -1.82605 -0.52494 1.95821 -24.3533 -1.1633 1.66047 -4.34068 -1.16333 1.66046 91.0537 -40.2315 -101.147 39.9309 -24.3738 28.4457 -20.6246 -13.8774 -60.3747 -14.5455 -0.507789 -2.15853 -92.5329 -42.672 73.4108 -14.082 2.99266 8.14892 25.0972 2.53678 -78.6542 25.545 3.24789 9.00193 -7.60296 -27.7062 -7.94689 5.37492 -28.0458 -20.7207 
58.604 84.9337 -19.3484 -81.1787 23.1303 -102.776 -163.587 14.2117 110.917 -26.7401 10.6418 -2.91745 51.4387 -6.54186 -3.46126 44.9163 21.2033 17.5333 163.205 58.974 88.0911 -88.3006 3.97433 0.652037 72.9024 -6.56945 -4.08387 53.4346 -4.1577 -10.6936 -0.464028 8.19233 -89.055 10.4896 -0.490564 1.92133 -1.18271 -0.405565 1.94104 -23.7094 -1.04524 1.68519 -3.69671 -1.04524 1.68518 91.2715 -40.5943 -100.677 40.006 -24.1855 30.1658 -18.2576 -12.2102 -60.6246 -14.5105 -0.505768 -1.97412 -92.0712 -42.9978 74.2447 -19.5483 5.66364 12.8224 24.0924 5.59344 -72.4159 27.5607 3.42521 8.72788 -7.94855 -25.6877 -7.11694 7.46709 -26.1095 -15.6335 
55.7688 87.0497 -24.2669 -78.6794 27.81 -106.595 -164.054 4.34607 108.958 -13.5262 5.91049 -1.18686 40.1538 -12.0218 -8.97125 28.6378 6.92247 26.3453 159.141 58.0315 89.8988 -83.7162 3.55992 2.54222 74.2984 -6.71961 -3.88824 50.5954 -4.11246 -11.6133 -0.472439 7.94398 -89.2375 10.9873 -0.587291 1.57253 -0.684527 -0.517493 1.59685 -23.2149 -1.03271 1.32339 -3.20231 -1.03271 1.3234 90.7186 -40.9272 -101.534 37.7565 -22.8733 29.1406 -18.9085 -12.4192 -60.7677 -16.3231 -0.516236 -2.21847 -91.1995 -43.1186 75.6715 -25.3929 6.32915 16.2372 20.6884 8.19425 -65.383 29.4001 3.58847 8.50657 -7.85137 -23.9333 -5.63108 9.99039 -24.3915 -11.5866 
53.4539 88.459 -29.6149 -75.0445 32.7101 -111.525 -167.906 0.74331 105.461 -12.7926 8.62681 0.345581 37.1249 -12.6866 -7.98743 23.3603 -0.649956 20.1757 158.545 56.4565 91.1528 -78.9961 4.01053 3.70898 71.5059 -5.10145 -3.07599 49.478 -4.59621 -13.7681 -0.360604 7.85845 -89.3805 11.1582 -0.429806 1.27547 -0.513307 -0.373261 1.29314 -23.0452 -0.793262 1.08736 -3.03254 -0.793262 1.08736 90.9713 -42.3456 -100.73 32.2815 -20.5774 24.9144 -17.9865 -10.4737 -61.1773 -18.8385 -0.525303 -2.55575 -91.2213 -43.6142 75.7712 -30.2596 5.54238 19.3913 17.7929 9.369 -60.4246 31.39 3.89021 8.69522 -6.27003 -22.3813 -3.86479 12.5491 -22.8176 -9.03031 
51.4624 88.4531 -34.9009 -70.3823 38.7761 -116.204 -170.989 5.18847 102.119 -29.1389 12.8468 1.13906 46.0277 -9.19106 -4.64103 23.5288 -0.511458 19.8661 160.716 51.9657 93.023 -73.1882 3.62075 4.23307 68.8873 -3.81423 -2.42101 46.8597 -2.27256 -6.89143 -0.146824 7.89742 -89.5499 11.0781 -0.0834038 0.904248 -0.593152 -0.0435416 0.907041 -23.126 -0.351292 0.837391 -3.11341 -0.351313 0.837376 90.8696 -43.6045 -100.578 26.2797 -18.6048 19.0074 -18.1157 -8.32387 -64.7669 -24.5302 -0.885431 -1.09127 -91.1592 -44.1114 76.0025 -34.4972 4.65845 23.4687 15.6552 9.41286 -57.8379 29.6073 3.70178 8.80782 -4.30279 -20.7224 -2.0586 14.8206 -21.1601 -7.24628 
49.6821 87.1632 -40.653 -65.6412 45.0556 -119.949 -171.679 10.5971 100.556 -45.9934 18.2071 1.11912 50.2788 -6.96813 -0.672677 26.9865 2.54099 17.6683 164.708 44.3352 95.4629 -69.3067 4.35359 4.01326 77.3764 -7.22938 -3.59156 48.0551 -1.97266 -5.53004 0.143158 8.1031 -89.8131 10.667 0.371194 0.337654 -1.00388 0.385687 0.320989 -23.5389 0.252553 0.433609 -3.52627 0.252547 0.433613 90.7182 -42.9212 -101.004 22.5081 -15.3478 11.8383 -21.0334 -6.82504 -69.1267 -29.7298 -1.32614 0.00508184 -91.4862 -45.2384 75.7875 -38.12 6.95967 27.1442 15.4378 11.2505 -55.4546 27.431 3.38341 8.63183 -1.74921 -19.2779 0.446137 16.6268 -19.8201 -5.7794 
48.6057 86.3911 -46.097 -58.8582 48.5967 -125.219 -172.721 21.5671 98.8069 -62.9289 22.1628 1.23319 51.6497 -6.2146 -0.0246935 29.5968 5.04863 17.1713 167.301 40.9264 98.0275 -66.6099 4.99924 3.23534 80.7139 -8.31851 -3.87339 48.6298 -1.24595 -2.98966 0.486259 8.07204 -90.0255 10.7305 0.956591 -0.138845 -0.94016 0.94956 -0.180817 -23.478 0.954102 0.155101 -3.46538 0.954091 0.155101 90.8089 -41.8442 -101.134 20.328 -12.0631 5.84838 -22.764 -3.00878 -75.5266 -34.7829 -0.934448 -2.08489 -92.5378 -46.5175 74.5065 -40.7092 10.6004 30.032 15.5481 15.356 -51.561 19.8227 1.82598 5.41931 0.535662 -18.1944 2.29287 17.8775 -18.8086 -4.41584 
47.2687 86.0341 -51.4743 -52.2731 53.8441 -130.904 -172.302 32.7744 96.3817 -77.4794 21.8813 1.26566 52.2351 -6.15218 0.45756 31.6986 7.25025 17.3713 169.88 35.7592 99.2012 -63.5154 3.50295 2.21617 81.1911 -9.2347 -4.24315 51.0498 -1.11225 -2.1598 0.95414 8.24325 -90.1214 10.3905 1.84522 -0.40221 -1.2792 1.82573 -0.48306 -23.8247 1.88075 0.171139 -3.81202 1.88075 0.171138 91.0442 -38.9437 -101.519 19.0515 -9.88102 -1.68262 -26.4188 -1.89994 -88.6655 -35.519 -1.22741 -1.14716 -92.4117 -46.5508 74.7089 -44.7357 12.4698 33.8693 17.3466 19.1216 -51.4617 11.5815 0.926656 3.87213 2.87307 -17.0265 4.3429 17.5807 -17.9548 -4.2006 
45.2868 86.4082 -58.3521 -47.177 57.7884 -137.487 -170.302 42.7578 91.2942 -84.9317 19.0678 0.911417 52.9026 -5.96149 0.417362 30.8441 6.69364 18.3617 171.931 27.7503 96.3712 -57.5613 -1.62934 1.05659 80.2375 -9.19109 -4.24461 53.8478 -1.71884 -3.61444 1.29228 8.23412 -89.9244 10.409 2.60902 -0.078484 -1.25938 2.60303 -0.19333 -23.8145 2.51192 0.709763 -3.80188 2.51191 0.70976 91.7543 -36.308 -100.986 18.471 -9.30274 -8.49761 -32.4348 6.33675 -93.3504 -36.352 -1.57005 -0.164034 -91.6879 -45.5372 75.5536 -50.2183 15.1693 40.7038 20.8188 19.4798 -56.1931 5.50169 0.405238 2.87086 2.34492 -16.4754 4.42084 16.7026 -17.1511 -2.57449 
43.3235 87.7106 -66.7565 -42.4 59.0579 -144.75 -166.633 51.6195 84.0455 -83.8581 18.9245 -0.191384 52.5417 -5.97475 1.39737 32.902 9.12061 19.1275 172.867 19.6575 92.501 -48.6878 -6.28502 -0.793429 75.904 -7.21273 -3.64542 54.3903 -0.563668 -0.276213 1.4882 7.97153 -89.5141 10.9241 3.18776 0.665327 -0.743016 3.21395 0.524232 -23.303 2.84033 1.59329 -3.29033 2.84033 1.59328 92.4869 -34.2905 -100.199 18.4518 -11.4265 -12.9883 -33.5229 11.2146 -101.201 -37.1302 -1.72751 0.247145 -90.8522 -43.935 76.4424 -55.0537 16.4512 48.6445 25.2332 15.7708 -63.1518 1.79283 0.128799 1.65593 1.44618 -16.347 3.58744 15.7348 -16.7517 -1.75638 
